<?xml version="1.0" standalone="no"?>
<!DOCTYPE svg PUBLIC "-//W3C//DTD SVG 20010904//EN"
 "http://www.w3.org/TR/2001/REC-SVG-20010904/DTD/svg10.dtd">
<svg version="1.0" xmlns="http://www.w3.org/2000/svg"
 width="1024.000000pt" height="1024.000000pt" viewBox="0 0 1024.000000 1024.000000"
 preserveAspectRatio="xMidYMid meet">
<metadata>
Created by potrace 1.14, written by Peter Selinger 2001-2017
</metadata>
<g transform="translate(0.000000,1024.000000) scale(0.100000,-0.100000)"
fill="#000000" stroke="none">
<path d="M4310 10208 c0 -7 15 -60 34 -118 18 -58 37 -121 41 -140 10 -54 46
-171 66 -215 36 -77 30 -87 -68 -124 -49 -18 -113 -44 -144 -57 -31 -13 -59
-24 -63 -24 -3 0 -54 -27 -112 -60 -58 -33 -109 -60 -114 -60 -4 0 -32 -16
-61 -37 -30 -20 -81 -55 -114 -77 -140 -97 -297 -227 -404 -336 -95 -96 -239
-258 -260 -290 -8 -14 -21 -29 -28 -33 -7 -4 -20 -22 -29 -40 -9 -17 -39 -60
-65 -95 -27 -35 -49 -69 -49 -75 0 -7 -17 -32 -38 -55 l-38 -44 -119 60 c-151
75 -208 99 -304 124 -93 24 -280 48 -330 42 -206 -26 -257 -48 -371 -163 -96
-97 -159 -205 -205 -349 -32 -101 -46 -273 -34 -420 7 -100 11 -113 54 -196
56 -108 127 -203 168 -225 17 -9 44 -28 61 -42 50 -43 145 -85 231 -102 151
-32 294 -22 475 32 52 16 101 30 108 32 13 4 47 -108 66 -216 7 -38 31 -108
90 -268 39 -105 126 -259 196 -347 19 -25 55 -71 79 -103 65 -85 232 -249 292
-286 14 -9 50 -35 80 -59 50 -39 113 -82 263 -176 63 -40 299 -157 305 -151 1
2 -30 20 -70 40 -101 50 -229 126 -229 135 0 5 -13 16 -29 27 -58 37 -228 204
-279 275 -50 69 -152 233 -152 245 0 3 -6 19 -14 36 -21 45 -63 191 -75 259
-18 102 -23 231 -13 328 11 99 60 272 93 326 22 37 24 62 5 89 -7 11 -26 58
-42 105 -28 83 -29 90 -29 290 1 165 4 217 18 265 10 33 23 78 29 100 19 67
56 152 105 238 25 45 55 99 66 120 12 21 40 57 62 81 23 23 54 59 69 79 16 20
45 47 65 59 20 12 57 41 83 64 56 49 278 161 393 198 192 62 397 101 580 112
348 20 741 -2 940 -52 33 -9 103 -24 155 -34 52 -10 151 -39 220 -65 69 -25
145 -52 170 -59 40 -12 78 -32 249 -128 87 -49 227 -186 282 -275 19 -30 48
-73 64 -96 17 -23 39 -62 50 -87 10 -25 26 -63 36 -85 53 -124 84 -259 100
-437 16 -185 8 -312 -25 -408 -28 -80 -28 -105 4 -149 30 -41 70 -177 82 -276
17 -147 4 -302 -36 -441 -40 -138 -57 -181 -94 -238 -14 -22 -36 -62 -48 -87
-12 -25 -43 -72 -68 -105 -26 -32 -65 -83 -87 -111 -22 -29 -43 -53 -48 -53
-6 0 -179 -144 -201 -168 -15 -16 241 125 270 149 19 16 39 29 45 29 6 0 24
14 41 31 16 17 54 48 84 69 30 21 72 55 92 76 20 22 55 56 77 78 22 21 45 51
52 67 6 16 15 29 20 29 10 0 127 164 139 195 5 12 24 46 43 76 35 55 87 164
87 181 0 12 80 198 92 214 6 8 38 0 109 -28 55 -22 126 -43 157 -49 90 -14
270 -11 337 6 65 17 195 74 195 85 0 4 12 12 26 19 56 25 107 80 168 181 71
118 80 141 101 261 19 105 19 160 1 281 -23 150 -54 249 -110 348 -14 25 -29
51 -32 58 -4 8 -16 24 -28 37 -12 13 -37 42 -57 66 -26 31 -63 57 -124 87 -84
43 -90 44 -206 49 -148 7 -298 -10 -433 -49 -55 -16 -115 -33 -132 -37 -37
-10 -83 -38 -104 -63 -15 -18 -18 -16 -58 46 -23 36 -42 68 -42 71 0 3 -29 49
-64 103 -35 53 -73 116 -85 140 -12 23 -46 71 -75 105 -29 35 -55 68 -57 75
-11 34 -365 394 -436 443 -23 16 -43 33 -45 38 -8 23 -350 254 -463 312 -103
54 -93 25 -80 234 6 96 4 127 -8 154 l-15 35 -15 -30 c-15 -29 -152 -161 -217
-209 -52 -38 -66 -33 -80 26 -17 69 -8 165 29 314 16 66 28 121 27 123 -2 1
-17 -13 -34 -33 -17 -19 -33 -35 -35 -35 -2 0 -66 -60 -142 -134 -76 -74 -149
-137 -162 -141 -32 -8 -65 17 -119 86 -24 32 -50 64 -57 71 -26 27 -54 74 -62
103 -7 27 -8 28 -15 10 -5 -11 -11 -33 -15 -49 -3 -16 -18 -41 -33 -55 -15
-14 -42 -45 -61 -69 -18 -23 -41 -47 -51 -52 -29 -16 -117 35 -157 91 -18 26
-40 49 -47 52 -8 3 -29 27 -47 54 -34 49 -202 248 -220 258 -5 4 -9 0 -9 -7z
m-1891 -2018 c81 -27 171 -81 237 -143 l56 -52 -26 -95 c-28 -106 -76 -393
-76 -457 0 -32 -5 -46 -22 -58 -30 -20 -141 -55 -198 -61 -25 -3 -50 -7 -55
-9 -6 -1 -46 3 -88 11 -124 21 -207 91 -246 207 -19 55 -24 91 -25 190 -1 141
4 171 41 258 35 83 70 132 124 172 81 59 175 72 278 37z m5407 -296 c38 -18
119 -110 140 -159 26 -62 48 -192 48 -290 0 -190 -51 -304 -170 -375 -57 -34
-60 -35 -169 -35 -108 0 -113 1 -188 38 -42 21 -77 43 -78 50 0 7 0 73 1 148
2 134 -15 291 -46 426 -8 34 -14 68 -14 76 0 31 150 111 255 137 54 13 179 4
221 -16z"/>
<path d="M4609 8017 c-70 -46 -95 -149 -69 -274 9 -42 17 -53 58 -81 55 -37
66 -39 110 -12 66 41 94 132 73 245 -9 51 -17 66 -55 103 -51 48 -69 51 -117
19z"/>
<path d="M5332 7983 c-45 -42 -52 -63 -52 -160 0 -108 24 -166 81 -195 32 -16
41 -17 75 -6 32 11 44 22 67 67 35 70 38 180 7 241 -41 80 -121 104 -178 53z"/>
<path d="M3893 6795 c6 -81 40 -171 81 -215 13 -14 33 -43 44 -66 12 -23 37
-54 57 -70 20 -16 58 -51 83 -77 48 -49 60 -57 199 -137 89 -52 259 -117 384
-149 48 -11 153 -28 234 -38 138 -15 157 -15 284 1 159 19 275 51 426 116 83
35 244 150 286 202 21 27 51 60 68 73 16 14 40 47 52 73 13 26 35 66 49 88 14
23 35 70 45 104 19 61 19 63 0 76 -25 18 -69 18 -85 -1 -8 -9 -10 -28 -5 -55
7 -44 -17 -106 -56 -143 -11 -10 -33 -42 -50 -71 -26 -48 -128 -145 -203 -195
-75 -51 -101 -64 -191 -100 -162 -64 -280 -84 -480 -85 -119 0 -194 5 -250 16
-185 38 -232 50 -262 63 -17 8 -39 15 -49 15 -9 0 -47 17 -83 38 -36 20 -87
48 -113 62 -54 29 -198 138 -198 151 0 4 -27 37 -60 72 -33 36 -67 82 -76 103
-9 22 -22 53 -29 69 -8 17 -19 49 -25 72 -10 39 -48 83 -73 83 -6 0 -8 -27 -4
-75z"/>
<path d="M8545 6574 c-81 -13 -188 -46 -258 -80 -42 -20 -77 -41 -77 -45 0 -4
-22 -19 -48 -32 -47 -24 -192 -155 -192 -174 0 -6 -22 -32 -49 -59 -51 -51
-61 -66 -144 -224 -27 -52 -54 -99 -58 -104 -5 -6 -9 -18 -9 -28 0 -11 -11
-40 -25 -66 -14 -26 -25 -52 -25 -58 0 -6 -12 -32 -26 -57 l-25 -46 31 11 c17
6 46 24 63 40 33 30 140 88 163 88 18 0 59 52 94 123 41 81 69 126 96 157 123
141 160 177 254 249 39 30 151 71 258 96 81 18 86 18 180 0 127 -23 223 -63
297 -121 79 -62 106 -94 159 -184 73 -125 90 -219 65 -355 -8 -45 -22 -74 -63
-129 -72 -97 -87 -108 -196 -156 -84 -37 -106 -43 -192 -47 -80 -5 -102 -3
-122 11 -32 20 -76 105 -76 145 l0 29 113 -2 c107 -1 115 0 165 29 30 16 64
41 76 56 29 34 49 133 41 204 -6 56 -43 151 -70 182 -9 10 -31 38 -49 63 -22
30 -55 56 -98 79 l-65 35 -49 -20 -49 -20 -3 -63 -3 -62 74 -72 c84 -81 97
-102 97 -149 0 -64 -14 -71 -112 -57 -147 20 -206 0 -249 -86 -20 -39 -21 -54
-17 -154 5 -104 8 -115 47 -195 41 -82 44 -85 104 -113 95 -45 184 -56 312
-38 196 27 339 94 452 212 49 51 68 80 92 143 74 195 74 361 -1 560 -31 80
-123 215 -185 270 -71 62 -266 169 -353 192 -73 19 -275 32 -345 22z"/>
<path d="M2544 5863 c-6 -24 -30 -79 -79 -188 -7 -16 -30 -68 -49 -114 -20
-46 -45 -95 -57 -108 -13 -12 -21 -23 -18 -24 2 -1 18 -2 34 -4 29 -3 179 -31
320 -60 39 -8 97 -17 130 -20 33 -4 114 -17 180 -30 66 -13 165 -31 220 -40
55 -9 125 -22 155 -30 30 -8 91 -19 135 -25 44 -5 130 -19 190 -30 61 -11 184
-32 275 -46 91 -15 169 -30 173 -34 5 -4 4 -16 -2 -26 -5 -11 -30 -62 -55
-114 -26 -52 -61 -122 -79 -155 -72 -134 -144 -298 -208 -475 -11 -30 -29 -77
-41 -105 -11 -27 -24 -66 -28 -85 -5 -19 -16 -55 -25 -80 -9 -25 -26 -97 -36
-160 -11 -63 -27 -155 -36 -205 -18 -106 -20 -394 -4 -500 22 -145 70 -374 85
-406 8 -19 31 -74 51 -124 20 -49 54 -121 77 -159 23 -39 47 -81 54 -95 15
-29 104 -130 157 -180 25 -23 37 -43 37 -61 0 -61 -71 -429 -123 -635 -14 -55
-28 -120 -32 -145 -3 -25 -13 -77 -21 -117 -17 -85 -17 -96 -5 -88 6 3 103 12
218 20 265 19 273 21 273 46 0 23 -33 252 -55 379 -9 47 -26 161 -40 255 -14
93 -28 178 -31 189 -5 16 -3 18 12 11 173 -72 290 -102 461 -116 253 -20 506
8 712 81 30 11 59 17 64 13 12 -7 -3 -247 -44 -726 -10 -108 -10 -140 0 -150
14 -14 224 -17 372 -4 l97 9 -19 81 c-10 45 -30 125 -45 177 -14 52 -32 122
-39 155 -15 70 -39 169 -60 240 -7 28 -21 88 -30 135 -8 47 -22 109 -29 138
l-14 53 31 33 c18 19 44 41 58 50 15 9 53 52 85 94 31 42 70 94 86 115 16 20
40 61 52 90 57 129 75 174 81 199 l7 27 51 -32 c29 -17 72 -46 97 -63 25 -17
68 -42 95 -54 28 -12 52 -26 55 -30 10 -14 145 -93 184 -106 21 -8 69 -30 106
-48 37 -19 95 -44 128 -55 34 -11 76 -26 94 -34 155 -70 467 -132 663 -132
280 0 476 76 592 229 31 40 71 167 78 246 3 36 8 84 10 107 4 50 -22 333 -35
385 -6 20 -15 71 -20 115 -9 74 -25 136 -126 480 -24 83 -44 162 -44 175 0 13
-4 28 -9 34 -10 11 -61 191 -91 324 -12 52 -28 120 -35 150 -7 30 -16 80 -20
110 -4 30 -13 80 -20 110 -7 30 -18 96 -25 145 -18 137 -6 125 -126 125 -89 0
-104 -2 -104 -16 0 -46 81 -493 105 -579 20 -70 52 -200 66 -265 7 -30 19 -71
27 -90 8 -19 27 -82 43 -140 16 -58 38 -139 50 -180 12 -41 29 -111 39 -155
10 -44 29 -129 43 -190 59 -258 71 -345 71 -500 l1 -150 -37 -70 c-44 -86 -78
-119 -149 -146 -158 -61 -478 -49 -734 28 -27 8 -58 17 -68 19 -22 4 -121 43
-211 83 -37 17 -74 31 -82 31 -12 0 -89 40 -254 132 -30 16 -81 50 -113 74
-33 24 -64 44 -71 44 -6 0 -25 13 -42 28 -17 15 -54 43 -83 61 -49 32 -52 36
-46 65 31 151 -3 529 -65 731 -48 154 -102 308 -121 340 -10 17 -27 59 -39 95
-12 36 -42 108 -67 160 -100 207 -196 397 -224 442 -17 25 -33 62 -36 82 l-6
36 429 1 c236 0 436 2 444 3 8 2 112 6 230 10 199 6 552 25 557 30 4 4 -28
110 -37 121 -4 6 -14 33 -23 60 -33 111 -87 250 -97 253 -6 2 -43 -7 -83 -21
-93 -32 -172 -54 -222 -62 -40 -7 -73 -15 -215 -54 -41 -11 -100 -26 -130 -32
-30 -6 -95 -20 -145 -30 -49 -11 -133 -28 -185 -38 -97 -19 -151 -31 -395 -82
-77 -17 -151 -32 -165 -35 -20 -4 -32 3 -63 40 -21 25 -46 63 -55 83 -9 21
-32 59 -50 86 l-33 47 -147 -6 c-242 -10 -602 18 -817 65 l-81 18 -12 -26 c-6
-14 -27 -51 -47 -81 -19 -30 -35 -60 -35 -66 0 -6 -6 -17 -14 -23 -11 -9 -35
-1 -111 34 -53 25 -118 51 -144 59 -25 7 -73 26 -106 41 -33 15 -82 35 -110
45 -107 38 -364 148 -447 191 -10 5 -23 9 -30 9 -7 0 -51 18 -98 40 -47 22
-95 40 -107 40 -12 0 -24 4 -27 9 -3 5 -17 12 -31 15 -13 3 -62 24 -109 46
-47 22 -88 40 -91 40 -9 0 -91 37 -178 81 -43 21 -80 39 -82 39 -3 0 -8 -12
-11 -27z m2401 -2118 c109 -16 231 -59 318 -111 143 -87 163 -101 202 -139 22
-22 57 -52 77 -67 72 -55 170 -223 203 -347 19 -76 19 -246 0 -331 -11 -47
-31 -87 -71 -146 -48 -70 -67 -89 -149 -142 -98 -64 -193 -101 -368 -142 -73
-17 -122 -20 -287 -20 -178 0 -209 3 -302 25 -269 66 -377 136 -463 304 -44
87 -66 273 -46 391 27 154 109 322 192 396 19 16 47 46 63 66 15 21 51 52 80
69 28 17 67 45 86 62 19 17 68 46 110 64 41 19 84 38 95 44 44 20 141 47 155
42 8 -3 56 -11 105 -18z"/>
<path d="M7893 5576 c-69 -34 -180 -122 -169 -133 2 -2 16 3 32 12 16 8 45 15
64 16 19 0 44 4 55 8 19 8 19 8 -2 15 -13 4 -23 11 -23 16 0 10 84 70 98 70 5
0 17 9 27 20 25 28 12 24 -82 -24z"/>
<path d="M7863 5313 c-22 -8 -14 -23 12 -23 16 0 25 6 25 15 0 15 -14 18 -37
8z"/>
<path d="M7916 5310 c7 -7 32 -8 75 -2 l64 10 -74 1 c-52 1 -72 -2 -65 -9z"/>
<path d="M7870 5165 c-7 -8 -22 -15 -34 -16 -11 0 -30 -5 -41 -10 -14 -7 -6
-8 29 -4 64 7 127 26 120 36 -9 15 -61 10 -74 -6z"/>
<path d="M10080 80 l0 -80 80 0 80 0 0 80 0 80 -80 0 -80 0 0 -80z"/>
</g>
</svg>
